<svg width="512" height="512" viewBox="0 0 512 512" fill="none" xmlns="http://www.w3.org/2000/svg">
  <defs>
    <radialGradient id="goldCore" cx="0" cy="0" r="1" gradientUnits="userSpaceOnUse" gradientTransform="translate(205 118) rotate(58) scale(308 254)">
      <stop stop-color="#FFF4B8"/>
      <stop offset="0.28" stop-color="#F5C64E"/>
      <stop offset="0.56" stop-color="#B87913"/>
      <stop offset="0.78" stop-color="#E4AA2B"/>
      <stop offset="1" stop-color="#7A3E00"/>
    </radialGradient>
    <linearGradient id="edgeGold" x1="159" y1="21" x2="340" y2="468" gradientUnits="userSpaceOnUse">
      <stop stop-color="#FFF7C6"/>
      <stop offset="0.28" stop-color="#D89518"/>
      <stop offset="0.57" stop-color="#FFE486"/>
      <stop offset="1" stop-color="#7A3B00"/>
    </linearGradient>
    <linearGradient id="engrave" x1="120" y1="82" x2="376" y2="413" gradientUnits="userSpaceOnUse">
      <stop stop-color="#7F4503"/>
      <stop offset="0.45" stop-color="#F1BF44"/>
      <stop offset="1" stop-color="#6F3500"/>
    </linearGradient>
    <filter id="softGlow" x="40" y="0" width="432" height="512" filterUnits="userSpaceOnUse" color-interpolation-filters="sRGB">
      <feGaussianBlur stdDeviation="5" result="blur"/>
      <feColorMatrix in="blur" type="matrix" values="1 0 0 0 1 0 1 0 0 0.71 0 0 1 0 0.12 0 0 0 0.72 0"/>
      <feBlend in="SourceGraphic"/>
    </filter>
  </defs>

  <g filter="url(#softGlow)">
    <path d="M256 493C250 476 229 432 189 380C145 323 100 277 94 200C86 95 159 24 256 24C353 24 426 95 418 200C412 277 367 323 323 380C283 432 262 476 256 493Z" fill="url(#goldCore)" stroke="url(#edgeGold)" stroke-width="10" stroke-linejoin="round"/>
    <path d="M256 463C245 434 224 398 193 359C154 309 118 266 113 198C107 108 169 45 256 45C343 45 405 108 399 198C394 266 358 309 319 359C288 398 267 434 256 463Z" stroke="#FFE996" stroke-opacity="0.55" stroke-width="4"/>

    <circle cx="256" cy="176" r="89" fill="#050505" stroke="#FFE596" stroke-width="12"/>
    <circle cx="256" cy="176" r="66" stroke="#6C3300" stroke-opacity="0.82" stroke-width="6"/>

    <path d="M183 108C160 132 146 164 147 201" stroke="url(#engrave)" stroke-width="13" stroke-linecap="round"/>
    <path d="M329 108C352 132 366 164 365 201" stroke="url(#engrave)" stroke-width="13" stroke-linecap="round"/>
    <path d="M164 251C187 279 211 309 227 351" stroke="url(#engrave)" stroke-width="11" stroke-linecap="round"/>
    <path d="M348 251C325 279 301 309 285 351" stroke="url(#engrave)" stroke-width="11" stroke-linecap="round"/>
    <path d="M205 380C231 356 245 325 256 287C267 325 281 356 307 380" stroke="#7E4304" stroke-opacity="0.82" stroke-width="8" stroke-linecap="round" stroke-linejoin="round"/>
    <path d="M212 389C238 365 250 340 256 311C262 340 274 365 300 389" stroke="#FFE184" stroke-opacity="0.55" stroke-width="4" stroke-linecap="round" stroke-linejoin="round"/>

    <path d="M256 6L276 49L319 69L276 89L256 132L236 89L193 69L236 49L256 6Z" fill="#FFEAA0" stroke="#9A5C08" stroke-width="5" stroke-linejoin="round"/>
    <path d="M255 263L274 305L316 324L274 343L255 385L236 343L194 324L236 305L255 263Z" fill="#FFEAA0" stroke="#9A5C08" stroke-width="5" stroke-linejoin="round"/>
    <path d="M128 151L142 181L172 195L142 209L128 239L114 209L84 195L114 181L128 151Z" fill="#FFF0A8" stroke="#9A5C08" stroke-width="4" stroke-linejoin="round"/>
    <path d="M384 151L398 181L428 195L398 209L384 239L370 209L340 195L370 181L384 151Z" fill="#FFF0A8" stroke="#9A5C08" stroke-width="4" stroke-linejoin="round"/>
    <path d="M255 416L263 434L281 442L263 450L255 468L247 450L229 442L247 434L255 416Z" fill="#FFE99B" stroke="#A7650B" stroke-width="3" stroke-linejoin="round"/>
  </g>
</svg>
