<svg width="344" height="289" viewBox="0 0 344 289" fill="none" xmlns="http://www.w3.org/2000/svg">
<path d="M137.507 159.397C135.623 165.972 134.614 172.917 134.614 180.098C134.614 221.519 168.193 255.098 209.614 255.098C220.641 255.098 231.111 252.718 240.541 248.444C228.185 266.357 207.521 278.098 184.114 278.098C170.645 278.098 158.084 274.209 147.492 267.495L111.73 288.956L128.212 249.195C120.278 238.014 115.614 224.351 115.614 209.598C115.614 189.768 124.04 171.906 137.507 159.397ZM243.614 41.0981C298.842 41.0982 343.614 85.8697 343.614 141.098C343.614 196.327 298.842 241.098 243.614 241.098C188.385 241.098 143.614 196.327 143.614 141.098C143.614 85.8697 188.385 41.0981 243.614 41.0981ZM256.114 60.0981C214.969 60.0981 181.614 93.4529 181.614 134.598C181.614 175.743 214.969 209.098 256.114 209.098C297.259 209.098 330.614 175.743 330.614 134.598C330.614 93.453 297.259 60.0982 256.114 60.0981ZM4.06215 79.1274C17.2761 53.6705 58.7839 49.019 96.7731 68.7378C114.836 78.1135 128.85 91.3107 137.163 105.312C131.363 99.1605 124.085 93.6111 115.613 89.2134C86.6433 74.1763 54.7019 78.2785 44.2702 98.3755C33.8389 118.473 48.8672 146.954 77.8366 161.991C89.8097 168.206 102.29 171.148 113.55 171.046C95.1863 175.737 71.4359 172.612 48.9215 160.925C10.9324 141.206 -9.15164 104.584 4.06215 79.1274ZM100.071 2.5288C120.83 -7.935 152.03 15.0266 169.759 53.8149C171.102 56.7527 172.327 59.6977 173.439 62.6352C158.164 37.1742 132.326 23.9902 110.254 32.4351C98.2179 37.0399 89.3864 47.2776 84.5661 60.4351C79.5468 33.388 84.9561 10.1482 100.071 2.5288Z" fill="#FF3535"/>
</svg>
